<?xml version="1.0" encoding="UTF-8"?>
<svg xmlns="http://www.w3.org/2000/svg" xmlns:xlink="http://www.w3.org/1999/xlink" width="234" height="142" viewBox="0 0 234 142">
<rect x="-23.4" y="-14.2" width="280.8" height="170.4" fill="rgb(100%, 100%, 100%)" fill-opacity="1"/>
<path fill-rule="nonzero" fill="rgb(0%, 0%, 0%)" fill-opacity="1" d="M 16.40625 119.578125 L 16.40625 131.179688 L 19.21875 131.179688 C 19.410156 131.179688 19.550781 131.21875 19.636719 131.292969 C 19.71875 131.371094 19.761719 131.46875 19.765625 131.589844 C 19.761719 131.707031 19.71875 131.804688 19.636719 131.882812 C 19.550781 131.960938 19.410156 132 19.21875 132 L 12.773438 132 C 12.574219 132 12.433594 131.960938 12.351562 131.882812 C 12.265625 131.804688 12.226562 131.707031 12.226562 131.589844 C 12.226562 131.46875 12.265625 131.371094 12.351562 131.292969 C 12.433594 131.21875 12.574219 131.179688 12.773438 131.179688 L 15.585938 131.179688 L 15.585938 120.710938 L 12.910156 121.550781 C 12.777344 121.59375 12.683594 121.613281 12.625 121.609375 C 12.527344 121.613281 12.4375 121.570312 12.355469 121.488281 C 12.273438 121.410156 12.230469 121.316406 12.234375 121.199219 C 12.230469 121.105469 12.265625 121.011719 12.335938 120.925781 C 12.386719 120.875 12.492188 120.820312 12.65625 120.757812 Z M 10 115.351562 "/>
<path fill-rule="nonzero" fill="rgb(0%, 0%, 0%)" fill-opacity="1" d="M 34 10 L 36 10 L 36 122 L 34 122 Z M 34 10 "/>
<path fill-rule="nonzero" fill="rgb(0%, 0%, 0%)" fill-opacity="1" d="M 38 10 L 40 10 L 40 122 L 38 122 Z M 38 10 "/>
<path fill-rule="nonzero" fill="rgb(0%, 0%, 0%)" fill-opacity="1" d="M 44 10 L 46 10 L 46 110 L 44 110 Z M 44 10 "/>
<path fill-rule="nonzero" fill="rgb(0%, 0%, 0%)" fill-opacity="1" d="M 50 10 L 52 10 L 52 110 L 50 110 Z M 50 10 "/>
<path fill-rule="nonzero" fill="rgb(0%, 0%, 0%)" fill-opacity="1" d="M 52 10 L 54 10 L 54 110 L 52 110 Z M 52 10 "/>
<path fill-rule="nonzero" fill="rgb(0%, 0%, 0%)" fill-opacity="1" d="M 56 10 L 58 10 L 58 110 L 56 110 Z M 56 10 "/>
<path fill-rule="nonzero" fill="rgb(0%, 0%, 0%)" fill-opacity="1" d="M 58 10 L 60 10 L 60 110 L 58 110 Z M 58 10 "/>
<path fill-rule="nonzero" fill="rgb(0%, 0%, 0%)" fill-opacity="1" d="M 60 10 L 62 10 L 62 110 L 60 110 Z M 60 10 "/>
<path fill-rule="nonzero" fill="rgb(0%, 0%, 0%)" fill-opacity="1" d="M 62 10 L 64 10 L 64 110 L 62 110 Z M 62 10 "/>
<path fill-rule="nonzero" fill="rgb(0%, 0%, 0%)" fill-opacity="1" d="M 66 10 L 68 10 L 68 110 L 66 110 Z M 66 10 "/>
<path fill-rule="nonzero" fill="rgb(0%, 0%, 0%)" fill-opacity="1" d="M 72 10 L 74 10 L 74 110 L 72 110 Z M 72 10 "/>
<path fill-rule="nonzero" fill="rgb(0%, 0%, 0%)" fill-opacity="1" d="M 74 10 L 76 10 L 76 110 L 74 110 Z M 74 10 "/>
<path fill-rule="nonzero" fill="rgb(0%, 0%, 0%)" fill-opacity="1" d="M 76 10 L 78 10 L 78 110 L 76 110 Z M 76 10 "/>
<path fill-rule="nonzero" fill="rgb(0%, 0%, 0%)" fill-opacity="1" d="M 80 10 L 82 10 L 82 110 L 80 110 Z M 80 10 "/>
<path fill-rule="nonzero" fill="rgb(0%, 0%, 0%)" fill-opacity="1" d="M 84 10 L 86 10 L 86 110 L 84 110 Z M 84 10 "/>
<path fill-rule="nonzero" fill="rgb(0%, 0%, 0%)" fill-opacity="1" d="M 86 10 L 88 10 L 88 110 L 86 110 Z M 86 10 "/>
<path fill-rule="nonzero" fill="rgb(0%, 0%, 0%)" fill-opacity="1" d="M 94 10 L 96 10 L 96 110 L 94 110 Z M 94 10 "/>
<path fill-rule="nonzero" fill="rgb(0%, 0%, 0%)" fill-opacity="1" d="M 104 10 L 106 10 L 106 110 L 104 110 Z M 104 10 "/>
<path fill-rule="nonzero" fill="rgb(0%, 0%, 0%)" fill-opacity="1" d="M 108 10 L 110 10 L 110 110 L 108 110 Z M 108 10 "/>
<path fill-rule="nonzero" fill="rgb(0%, 0%, 0%)" fill-opacity="1" d="M 114 10 L 116 10 L 116 110 L 114 110 Z M 114 10 "/>
<path fill-rule="nonzero" fill="rgb(0%, 0%, 0%)" fill-opacity="1" d="M 122 10 L 124 10 L 124 110 L 122 110 Z M 122 10 "/>
<path fill-rule="nonzero" fill="rgb(0%, 0%, 0%)" fill-opacity="1" d="M 48.46875 131.179688 L 54.769531 131.179688 L 54.769531 130.859375 C 54.765625 130.664062 54.804688 130.523438 54.886719 130.4375 C 54.960938 130.355469 55.0625 130.3125 55.1875 130.3125 C 55.304688 130.3125 55.402344 130.355469 55.484375 130.4375 C 55.558594 130.523438 55.597656 130.664062 55.601562 130.859375 L 55.601562 132 L 47.671875 132 L 47.671875 130.789062 C 49.335938 129.292969 50.957031 127.769531 52.53125 126.21875 C 53.265625 125.496094 53.769531 124.964844 54.046875 124.625 C 54.316406 124.289062 54.503906 123.992188 54.605469 123.734375 C 54.703125 123.480469 54.753906 123.222656 54.757812 122.957031 C 54.753906 122.257812 54.472656 121.636719 53.910156 121.09375 C 53.34375 120.554688 52.660156 120.28125 51.859375 120.28125 C 51.140625 120.28125 50.503906 120.488281 49.953125 120.898438 C 49.398438 121.308594 49.042969 121.816406 48.882812 122.421875 C 48.839844 122.582031 48.789062 122.683594 48.734375 122.722656 C 48.652344 122.792969 48.5625 122.824219 48.460938 122.820312 C 48.351562 122.824219 48.257812 122.785156 48.183594 122.707031 C 48.105469 122.632812 48.066406 122.542969 48.070312 122.4375 C 48.066406 122.125 48.238281 121.703125 48.582031 121.167969 C 48.921875 120.636719 49.394531 120.21875 49.996094 119.910156 C 50.597656 119.609375 51.214844 119.457031 51.851562 119.453125 C 52.871094 119.457031 53.75 119.808594 54.484375 120.515625 C 55.21875 121.226562 55.585938 122.03125 55.589844 122.929688 C 55.585938 123.304688 55.523438 123.652344 55.402344 123.96875 C 55.277344 124.285156 55.066406 124.628906 54.773438 125.003906 C 54.472656 125.378906 53.941406 125.945312 53.179688 126.695312 C 51.25 128.601562 49.679688 130.074219 48.46875 131.121094 Z M 65.6875 125.328125 C 66.441406 125.667969 67.015625 126.132812 67.414062 126.722656 C 67.808594 127.3125 68.007812 127.925781 68.007812 128.5625 C 68.007812 129.550781 67.609375 130.417969 66.8125 131.167969 C 66.015625 131.917969 65.015625 132.292969 63.820312 132.292969 C 63.113281 132.292969 62.386719 132.144531 61.632812 131.84375 C 60.875 131.546875 60.347656 131.242188 60.050781 130.925781 C 59.953125 130.824219 59.902344 130.710938 59.90625 130.59375 C 59.902344 130.492188 59.941406 130.402344 60.015625 130.320312 C 60.089844 130.246094 60.179688 130.207031 60.285156 130.203125 C 60.386719 130.207031 60.503906 130.257812 60.636719 130.351562 C 61.644531 131.101562 62.710938 131.472656 63.839844 131.472656 C 64.789062 131.472656 65.585938 131.175781 66.226562 130.582031 C 66.867188 129.988281 67.1875 129.328125 67.1875 128.59375 C 67.1875 128.109375 67.027344 127.628906 66.714844 127.15625 C 66.394531 126.691406 65.941406 126.320312 65.351562 126.046875 C 64.757812 125.777344 64.160156 125.644531 63.554688 125.640625 C 63.359375 125.644531 63.21875 125.605469 63.136719 125.53125 C 63.046875 125.457031 63.003906 125.359375 63.007812 125.234375 C 63.003906 125.117188 63.042969 125.019531 63.128906 124.9375 C 63.207031 124.863281 63.332031 124.824219 63.5 124.820312 L 64.203125 124.832031 C 64.933594 124.835938 65.539062 124.609375 66.023438 124.160156 C 66.5 123.710938 66.742188 123.191406 66.742188 122.59375 C 66.742188 121.988281 66.488281 121.449219 65.988281 120.976562 C 65.480469 120.511719 64.828125 120.277344 64.023438 120.273438 C 63.457031 120.277344 62.933594 120.375 62.460938 120.566406 C 61.984375 120.765625 61.605469 121.03125 61.320312 121.367188 C 61.214844 121.5 61.136719 121.578125 61.082031 121.605469 C 61.027344 121.636719 60.960938 121.652344 60.890625 121.648438 C 60.777344 121.652344 60.683594 121.613281 60.609375 121.535156 C 60.527344 121.460938 60.488281 121.371094 60.492188 121.265625 C 60.488281 121.007812 60.773438 120.679688 61.339844 120.28125 C 62.128906 119.730469 63.023438 119.457031 64.023438 119.453125 C 65.058594 119.457031 65.90625 119.765625 66.574219 120.386719 C 67.234375 121.007812 67.566406 121.75 67.570312 122.605469 C 67.566406 123.15625 67.40625 123.671875 67.089844 124.160156 C 66.769531 124.648438 66.304688 125.039062 65.6875 125.328125 Z M 77.535156 128.570312 L 72.09375 128.570312 L 72.09375 127.625 L 76.652344 119.742188 L 78.363281 119.742188 L 78.363281 127.75 L 79.046875 127.75 C 79.242188 127.753906 79.386719 127.789062 79.476562 127.863281 C 79.558594 127.941406 79.601562 128.042969 79.605469 128.164062 C 79.601562 128.28125 79.558594 128.378906 79.476562 128.453125 C 79.386719 128.535156 79.242188 128.574219 79.046875 128.570312 L 78.363281 128.570312 L 78.363281 131.179688 L 79.046875 131.179688 C 79.242188 131.179688 79.386719 131.21875 79.476562 131.292969 C 79.558594 131.371094 79.601562 131.46875 79.605469 131.589844 C 79.601562 131.707031 79.558594 131.804688 79.476562 131.882812 C 79.386719 131.960938 79.242188 132 79.046875 132 L 76 132 C 75.796875 132 75.65625 131.960938 75.570312 131.882812 C 75.484375 131.804688 75.441406 131.707031 75.441406 131.589844 C 75.441406 131.46875 75.484375 131.371094 75.570312 131.292969 C 75.65625 131.21875 75.796875 131.179688 76 131.179688 L 77.535156 131.179688 Z M 77.535156 127.75 L 77.535156 120.574219 L 77.105469 120.574219 L 72.953125 127.75 Z M 85.75 120.574219 L 85.75 124.585938 C 86.226562 124.390625 86.6875 124.238281 87.132812 124.136719 C 87.574219 124.035156 87.996094 123.984375 88.394531 123.984375 C 89.421875 123.984375 90.28125 124.347656 90.976562 125.066406 C 91.667969 125.792969 92.015625 126.742188 92.015625 127.917969 C 92.015625 129.222656 91.625 130.277344 90.84375 131.082031 C 90.0625 131.890625 89.085938 132.292969 87.914062 132.292969 C 87.140625 132.292969 86.394531 132.121094 85.679688 131.773438 C 85.167969 131.535156 84.707031 131.234375 84.292969 130.875 C 84.042969 130.664062 83.917969 130.488281 83.921875 130.339844 C 83.917969 130.226562 83.957031 130.125 84.039062 130.042969 C 84.113281 129.964844 84.203125 129.925781 84.3125 129.921875 C 84.417969 129.925781 84.535156 129.984375 84.664062 130.09375 C 85.644531 131.015625 86.714844 131.472656 87.875 131.472656 C 88.828125 131.472656 89.621094 131.148438 90.25 130.492188 C 90.871094 129.839844 91.183594 128.96875 91.1875 127.878906 C 91.183594 126.957031 90.914062 126.210938 90.375 125.648438 C 89.835938 125.085938 89.148438 124.804688 88.316406 124.804688 C 87.460938 124.804688 86.609375 125.03125 85.757812 125.476562 C 85.546875 125.585938 85.398438 125.636719 85.320312 125.632812 C 85.195312 125.636719 85.101562 125.597656 85.035156 125.515625 C 84.960938 125.441406 84.925781 125.332031 84.929688 125.183594 L 84.929688 119.742188 L 90.648438 119.742188 C 90.84375 119.742188 90.984375 119.78125 91.070312 119.859375 C 91.152344 119.9375 91.195312 120.039062 91.195312 120.164062 C 91.195312 120.28125 91.152344 120.378906 91.070312 120.457031 C 90.984375 120.535156 90.84375 120.574219 90.648438 120.574219 Z M 97.5625 126.8125 C 98.066406 126.070312 98.589844 125.515625 99.128906 125.15625 C 99.667969 124.796875 100.265625 124.617188 100.921875 124.617188 C 101.792969 124.617188 102.566406 124.980469 103.246094 125.707031 C 103.921875 126.433594 104.261719 127.332031 104.261719 128.398438 C 104.261719 129.375 103.949219 130.269531 103.332031 131.078125 C 102.710938 131.890625 101.859375 132.292969 100.773438 132.292969 C 100.0625 132.292969 99.402344 132.078125 98.789062 131.640625 C 98.171875 131.207031 97.6875 130.535156 97.335938 129.625 C 96.898438 128.503906 96.679688 127.257812 96.683594 125.886719 C 96.679688 124.863281 96.882812 123.90625 97.296875 123.015625 C 97.605469 122.335938 98.023438 121.734375 98.546875 121.214844 C 99.066406 120.699219 99.671875 120.277344 100.367188 119.945312 C 101.058594 119.621094 101.8125 119.457031 102.621094 119.453125 C 103.167969 119.457031 103.621094 119.566406 103.988281 119.78125 C 104.140625 119.882812 104.21875 120.011719 104.222656 120.171875 C 104.21875 120.292969 104.183594 120.390625 104.113281 120.464844 C 104.039062 120.539062 103.949219 120.574219 103.84375 120.574219 C 103.753906 120.574219 103.652344 120.542969 103.539062 120.476562 C 103.269531 120.347656 102.9375 120.28125 102.542969 120.28125 C 101.273438 120.28125 100.117188 120.828125 99.070312 121.917969 C 98.023438 123.011719 97.5 124.308594 97.503906 125.808594 C 97.5 126.027344 97.519531 126.363281 97.5625 126.8125 Z M 97.75 128.171875 C 97.992188 129.359375 98.378906 130.203125 98.914062 130.710938 C 99.441406 131.21875 100.070312 131.472656 100.796875 131.472656 C 101.523438 131.472656 102.144531 131.191406 102.664062 130.621094 C 103.179688 130.054688 103.441406 129.3125 103.441406 128.398438 C 103.441406 127.546875 103.179688 126.839844 102.660156 126.277344 C 102.136719 125.71875 101.546875 125.4375 100.890625 125.4375 C 100.257812 125.4375 99.648438 125.710938 99.066406 126.25 C 98.671875 126.609375 98.234375 127.25 97.75 128.171875 Z M 114.765625 120.945312 L 114.765625 120.574219 L 108.890625 120.574219 L 108.890625 121.296875 C 108.890625 121.496094 108.851562 121.636719 108.777344 121.71875 C 108.699219 121.804688 108.597656 121.847656 108.476562 121.84375 C 108.359375 121.847656 108.265625 121.804688 108.1875 121.71875 C 108.109375 121.636719 108.070312 121.496094 108.070312 121.296875 L 108.070312 119.742188 L 115.597656 119.742188 L 115.597656 121.054688 L 112.296875 131.601562 C 112.242188 131.769531 112.179688 131.882812 112.109375 131.9375 C 112.035156 131.992188 111.957031 132.015625 111.867188 132.019531 C 111.75 132.015625 111.652344 131.980469 111.574219 131.902344 C 111.496094 131.828125 111.457031 131.738281 111.457031 131.628906 C 111.457031 131.566406 111.476562 131.472656 111.515625 131.355469 Z M 46 115.351562 "/>
<path fill-rule="nonzero" fill="rgb(0%, 0%, 0%)" fill-opacity="1" d="M 126 10 L 128 10 L 128 122 L 126 122 Z M 126 10 "/>
<path fill-rule="nonzero" fill="rgb(0%, 0%, 0%)" fill-opacity="1" d="M 130 10 L 132 10 L 132 122 L 130 122 Z M 130 10 "/>
<path fill-rule="nonzero" fill="rgb(0%, 0%, 0%)" fill-opacity="1" d="M 134 10 L 136 10 L 136 110 L 134 110 Z M 134 10 "/>
<path fill-rule="nonzero" fill="rgb(0%, 0%, 0%)" fill-opacity="1" d="M 140 10 L 142 10 L 142 110 L 140 110 Z M 140 10 "/>
<path fill-rule="nonzero" fill="rgb(0%, 0%, 0%)" fill-opacity="1" d="M 148 10 L 150 10 L 150 110 L 148 110 Z M 148 10 "/>
<path fill-rule="nonzero" fill="rgb(0%, 0%, 0%)" fill-opacity="1" d="M 150 10 L 152 10 L 152 110 L 150 110 Z M 150 10 "/>
<path fill-rule="nonzero" fill="rgb(0%, 0%, 0%)" fill-opacity="1" d="M 152 10 L 154 10 L 154 110 L 152 110 Z M 152 10 "/>
<path fill-rule="nonzero" fill="rgb(0%, 0%, 0%)" fill-opacity="1" d="M 156 10 L 158 10 L 158 110 L 156 110 Z M 156 10 "/>
<path fill-rule="nonzero" fill="rgb(0%, 0%, 0%)" fill-opacity="1" d="M 162 10 L 164 10 L 164 110 L 162 110 Z M 162 10 "/>
<path fill-rule="nonzero" fill="rgb(0%, 0%, 0%)" fill-opacity="1" d="M 164 10 L 166 10 L 166 110 L 164 110 Z M 164 10 "/>
<path fill-rule="nonzero" fill="rgb(0%, 0%, 0%)" fill-opacity="1" d="M 166 10 L 168 10 L 168 110 L 166 110 Z M 166 10 "/>
<path fill-rule="nonzero" fill="rgb(0%, 0%, 0%)" fill-opacity="1" d="M 172 10 L 174 10 L 174 110 L 172 110 Z M 172 10 "/>
<path fill-rule="nonzero" fill="rgb(0%, 0%, 0%)" fill-opacity="1" d="M 176 10 L 178 10 L 178 110 L 176 110 Z M 176 10 "/>
<path fill-rule="nonzero" fill="rgb(0%, 0%, 0%)" fill-opacity="1" d="M 178 10 L 180 10 L 180 110 L 178 110 Z M 178 10 "/>
<path fill-rule="nonzero" fill="rgb(0%, 0%, 0%)" fill-opacity="1" d="M 184 10 L 186 10 L 186 110 L 184 110 Z M 184 10 "/>
<path fill-rule="nonzero" fill="rgb(0%, 0%, 0%)" fill-opacity="1" d="M 186 10 L 188 10 L 188 110 L 186 110 Z M 186 10 "/>
<path fill-rule="nonzero" fill="rgb(0%, 0%, 0%)" fill-opacity="1" d="M 190 10 L 192 10 L 192 110 L 190 110 Z M 190 10 "/>
<path fill-rule="nonzero" fill="rgb(0%, 0%, 0%)" fill-opacity="1" d="M 192 10 L 194 10 L 194 110 L 192 110 Z M 192 10 "/>
<path fill-rule="nonzero" fill="rgb(0%, 0%, 0%)" fill-opacity="1" d="M 196 10 L 198 10 L 198 110 L 196 110 Z M 196 10 "/>
<path fill-rule="nonzero" fill="rgb(0%, 0%, 0%)" fill-opacity="1" d="M 198 10 L 200 10 L 200 110 L 198 110 Z M 198 10 "/>
<path fill-rule="nonzero" fill="rgb(0%, 0%, 0%)" fill-opacity="1" d="M 204 10 L 206 10 L 206 110 L 204 110 Z M 204 10 "/>
<path fill-rule="nonzero" fill="rgb(0%, 0%, 0%)" fill-opacity="1" d="M 210 10 L 212 10 L 212 110 L 210 110 Z M 210 10 "/>
<path fill-rule="nonzero" fill="rgb(0%, 0%, 0%)" fill-opacity="1" d="M 147.6875 125.640625 C 148.367188 125.976562 148.882812 126.414062 149.234375 126.957031 C 149.582031 127.503906 149.753906 128.089844 149.757812 128.710938 C 149.753906 129.683594 149.390625 130.523438 148.664062 131.230469 C 147.933594 131.941406 147.046875 132.292969 146.007812 132.292969 C 144.960938 132.292969 144.078125 131.941406 143.351562 131.230469 C 142.621094 130.523438 142.253906 129.683594 142.257812 128.710938 C 142.253906 128.09375 142.429688 127.511719 142.777344 126.964844 C 143.125 126.425781 143.644531 125.984375 144.335938 125.640625 C 143.734375 125.300781 143.296875 124.941406 143.027344 124.570312 C 142.648438 124.042969 142.460938 123.460938 142.460938 122.820312 C 142.460938 121.925781 142.804688 121.140625 143.5 120.464844 C 144.1875 119.792969 145.023438 119.457031 146.007812 119.453125 C 146.984375 119.457031 147.820312 119.792969 148.515625 120.464844 C 149.203125 121.140625 149.550781 121.925781 149.550781 122.820312 C 149.550781 123.460938 149.359375 124.039062 148.984375 124.558594 C 148.714844 124.9375 148.285156 125.300781 147.6875 125.640625 Z M 148.710938 122.851562 C 148.707031 122.152344 148.445312 121.546875 147.925781 121.039062 C 147.398438 120.535156 146.753906 120.28125 145.996094 120.28125 C 145.238281 120.28125 144.597656 120.535156 144.074219 121.042969 C 143.546875 121.550781 143.285156 122.152344 143.289062 122.839844 C 143.285156 123.480469 143.546875 124.039062 144.066406 124.515625 C 144.582031 125 145.222656 125.238281 145.996094 125.234375 C 146.765625 125.238281 147.414062 125 147.933594 124.515625 C 148.449219 124.039062 148.707031 123.484375 148.710938 122.851562 Z M 148.9375 128.726562 C 148.933594 128.007812 148.65625 127.378906 148.097656 126.84375 C 147.535156 126.3125 146.835938 126.046875 146.007812 126.042969 C 145.171875 126.046875 144.476562 126.3125 143.917969 126.84375 C 143.355469 127.378906 143.074219 128.003906 143.078125 128.71875 C 143.074219 129.460938 143.355469 130.105469 143.921875 130.652344 C 144.480469 131.199219 145.175781 131.472656 146.007812 131.472656 C 146.828125 131.472656 147.523438 131.199219 148.089844 130.652344 C 148.652344 130.105469 148.933594 129.464844 148.9375 128.726562 Z M 161.367188 125.066406 C 160.941406 125.816406 160.4375 126.378906 159.855469 126.753906 C 159.273438 127.136719 158.675781 127.324219 158.0625 127.320312 C 157.496094 127.324219 156.949219 127.160156 156.417969 126.832031 C 155.886719 126.507812 155.464844 126.03125 155.15625 125.402344 C 154.839844 124.777344 154.683594 124.121094 154.6875 123.425781 C 154.683594 122.425781 154.992188 121.511719 155.617188 120.6875 C 156.234375 119.867188 157.066406 119.457031 158.113281 119.453125 C 158.851562 119.457031 159.53125 119.6875 160.144531 120.144531 C 160.753906 120.609375 161.226562 121.277344 161.570312 122.15625 C 162.003906 123.28125 162.222656 124.589844 162.226562 126.082031 C 162.222656 127.242188 162.039062 128.207031 161.667969 128.972656 C 161.417969 129.496094 161.054688 130 160.578125 130.488281 C 160.097656 130.976562 159.558594 131.375 158.960938 131.679688 C 158.140625 132.089844 157.289062 132.292969 156.40625 132.292969 C 155.816406 132.292969 155.335938 132.183594 154.96875 131.960938 C 154.796875 131.859375 154.710938 131.730469 154.714844 131.570312 C 154.710938 131.464844 154.75 131.371094 154.832031 131.292969 C 154.90625 131.21875 155.003906 131.179688 155.117188 131.179688 C 155.195312 131.179688 155.308594 131.21875 155.457031 131.289062 C 155.707031 131.414062 156 131.472656 156.335938 131.472656 C 157.71875 131.472656 158.910156 130.976562 159.910156 129.976562 C 160.90625 128.980469 161.402344 127.726562 161.40625 126.21875 C 161.402344 125.949219 161.390625 125.566406 161.367188 125.066406 Z M 161.210938 123.699219 C 160.863281 122.382812 160.433594 121.484375 159.921875 121 C 159.410156 120.523438 158.8125 120.28125 158.132812 120.28125 C 157.433594 120.28125 156.820312 120.574219 156.296875 121.160156 C 155.765625 121.746094 155.503906 122.5 155.507812 123.414062 C 155.503906 124.3125 155.765625 125.050781 156.296875 125.628906 C 156.820312 126.214844 157.417969 126.503906 158.085938 126.5 C 158.464844 126.503906 158.84375 126.398438 159.21875 126.1875 C 159.59375 125.980469 159.945312 125.667969 160.28125 125.25 C 160.492188 124.972656 160.804688 124.457031 161.210938 123.699219 Z M 173.769531 124.859375 L 173.769531 126.890625 C 173.765625 128.65625 173.347656 130.054688 172.511719 131.082031 C 171.851562 131.890625 171.019531 132.292969 170.019531 132.292969 C 169.535156 132.292969 169.082031 132.195312 168.65625 132.003906 C 168.230469 131.8125 167.867188 131.546875 167.566406 131.199219 C 167.378906 130.984375 167.171875 130.640625 166.949219 130.164062 C 166.722656 129.695312 166.5625 129.257812 166.464844 128.855469 C 166.3125 128.296875 166.234375 127.640625 166.238281 126.890625 L 166.238281 124.859375 C 166.234375 123.089844 166.65625 121.691406 167.5 120.664062 C 168.15625 119.859375 168.984375 119.457031 169.988281 119.453125 C 170.472656 119.457031 170.929688 119.550781 171.355469 119.742188 C 171.777344 119.933594 172.140625 120.203125 172.441406 120.546875 C 172.636719 120.769531 172.84375 121.117188 173.066406 121.589844 C 173.285156 122.070312 173.449219 122.503906 173.554688 122.890625 C 173.695312 123.449219 173.765625 124.105469 173.769531 124.859375 Z M 172.949219 124.96875 C 172.945312 124.195312 172.835938 123.476562 172.621094 122.804688 C 172.398438 122.140625 172.152344 121.609375 171.886719 121.210938 C 171.71875 120.984375 171.507812 120.789062 171.25 120.625 C 170.875 120.398438 170.457031 120.28125 170 120.28125 C 169.078125 120.28125 168.359375 120.75 167.839844 121.6875 C 167.316406 122.625 167.054688 123.71875 167.058594 124.96875 L 167.058594 126.773438 C 167.054688 127.550781 167.164062 128.277344 167.386719 128.945312 C 167.601562 129.617188 167.851562 130.148438 168.136719 130.546875 C 168.289062 130.765625 168.5 130.957031 168.761719 131.121094 C 169.128906 131.355469 169.546875 131.472656 170.019531 131.472656 C 170.929688 131.472656 171.644531 131.003906 172.167969 130.0625 C 172.683594 129.121094 172.945312 128.023438 172.949219 126.773438 Z M 182.414062 119.578125 L 182.414062 131.179688 L 185.226562 131.179688 C 185.417969 131.179688 185.558594 131.21875 185.644531 131.292969 C 185.726562 131.371094 185.769531 131.46875 185.773438 131.589844 C 185.769531 131.707031 185.726562 131.804688 185.644531 131.882812 C 185.558594 131.960938 185.417969 132 185.226562 132 L 178.78125 132 C 178.582031 132 178.441406 131.960938 178.359375 131.882812 C 178.273438 131.804688 178.234375 131.707031 178.234375 131.589844 C 178.234375 131.46875 178.273438 131.371094 178.359375 131.292969 C 178.441406 131.21875 178.582031 131.179688 178.78125 131.179688 L 181.59375 131.179688 L 181.59375 120.710938 L 178.917969 121.550781 C 178.785156 121.59375 178.691406 121.613281 178.632812 121.609375 C 178.535156 121.613281 178.445312 121.570312 178.363281 121.488281 C 178.28125 121.410156 178.238281 121.316406 178.242188 121.199219 C 178.238281 121.105469 178.273438 121.011719 178.34375 120.925781 C 178.394531 120.875 178.5 120.820312 178.664062 120.757812 Z M 190.476562 131.179688 L 196.777344 131.179688 L 196.777344 130.859375 C 196.773438 130.664062 196.8125 130.523438 196.894531 130.4375 C 196.96875 130.355469 197.070312 130.3125 197.195312 130.3125 C 197.3125 130.3125 197.410156 130.355469 197.492188 130.4375 C 197.566406 130.523438 197.605469 130.664062 197.609375 130.859375 L 197.609375 132 L 189.679688 132 L 189.679688 130.789062 C 191.34375 129.292969 192.964844 127.769531 194.539062 126.21875 C 195.273438 125.496094 195.777344 124.964844 196.054688 124.625 C 196.324219 124.289062 196.511719 123.992188 196.613281 123.734375 C 196.710938 123.480469 196.761719 123.222656 196.765625 122.957031 C 196.761719 122.257812 196.480469 121.636719 195.917969 121.09375 C 195.351562 120.554688 194.667969 120.28125 193.867188 120.28125 C 193.148438 120.28125 192.511719 120.488281 191.960938 120.898438 C 191.40625 121.308594 191.050781 121.816406 190.890625 122.421875 C 190.847656 122.582031 190.796875 122.683594 190.742188 122.722656 C 190.660156 122.792969 190.570312 122.824219 190.46875 122.820312 C 190.359375 122.824219 190.265625 122.785156 190.191406 122.707031 C 190.113281 122.632812 190.074219 122.542969 190.078125 122.4375 C 190.074219 122.125 190.246094 121.703125 190.589844 121.167969 C 190.929688 120.636719 191.402344 120.21875 192.003906 119.910156 C 192.605469 119.609375 193.222656 119.457031 193.859375 119.453125 C 194.878906 119.457031 195.757812 119.808594 196.492188 120.515625 C 197.226562 121.226562 197.59375 122.03125 197.597656 122.929688 C 197.59375 123.304688 197.53125 123.652344 197.410156 123.96875 C 197.285156 124.285156 197.074219 124.628906 196.78125 125.003906 C 196.480469 125.378906 195.949219 125.945312 195.1875 126.695312 C 193.257812 128.601562 191.6875 130.074219 190.476562 131.121094 Z M 207.695312 125.640625 C 208.375 125.976562 208.890625 126.414062 209.242188 126.957031 C 209.589844 127.503906 209.761719 128.089844 209.765625 128.710938 C 209.761719 129.683594 209.398438 130.523438 208.671875 131.230469 C 207.941406 131.941406 207.054688 132.292969 206.015625 132.292969 C 204.96875 132.292969 204.085938 131.941406 203.359375 131.230469 C 202.628906 130.523438 202.261719 129.683594 202.265625 128.710938 C 202.261719 128.09375 202.4375 127.511719 202.785156 126.964844 C 203.132812 126.425781 203.652344 125.984375 204.34375 125.640625 C 203.742188 125.300781 203.304688 124.941406 203.035156 124.570312 C 202.65625 124.042969 202.46875 123.460938 202.46875 122.820312 C 202.46875 121.925781 202.8125 121.140625 203.507812 120.464844 C 204.195312 119.792969 205.03125 119.457031 206.015625 119.453125 C 206.992188 119.457031 207.828125 119.792969 208.523438 120.464844 C 209.210938 121.140625 209.558594 121.925781 209.558594 122.820312 C 209.558594 123.460938 209.367188 124.039062 208.992188 124.558594 C 208.722656 124.9375 208.292969 125.300781 207.695312 125.640625 Z M 208.71875 122.851562 C 208.714844 122.152344 208.453125 121.546875 207.933594 121.039062 C 207.40625 120.535156 206.761719 120.28125 206.003906 120.28125 C 205.246094 120.28125 204.605469 120.535156 204.082031 121.042969 C 203.554688 121.550781 203.292969 122.152344 203.296875 122.839844 C 203.292969 123.480469 203.554688 124.039062 204.074219 124.515625 C 204.589844 125 205.230469 125.238281 206.003906 125.234375 C 206.773438 125.238281 207.421875 125 207.941406 124.515625 C 208.457031 124.039062 208.714844 123.484375 208.71875 122.851562 Z M 208.945312 128.726562 C 208.941406 128.007812 208.664062 127.378906 208.105469 126.84375 C 207.542969 126.3125 206.84375 126.046875 206.015625 126.042969 C 205.179688 126.046875 204.484375 126.3125 203.925781 126.84375 C 203.363281 127.378906 203.082031 128.003906 203.085938 128.71875 C 203.082031 129.460938 203.363281 130.105469 203.929688 130.652344 C 204.488281 131.199219 205.183594 131.472656 206.015625 131.472656 C 206.835938 131.472656 207.53125 131.199219 208.097656 130.652344 C 208.660156 130.105469 208.941406 129.464844 208.945312 128.726562 Z M 140 115.351562 "/>
<path fill-rule="nonzero" fill="rgb(0%, 0%, 0%)" fill-opacity="1" d="M 218 10 L 220 10 L 220 122 L 218 122 Z M 218 10 "/>
<path fill-rule="nonzero" fill="rgb(0%, 0%, 0%)" fill-opacity="1" d="M 222 10 L 224 10 L 224 122 L 222 122 Z M 222 10 "/>
</svg>
