<?xml version="1.0" encoding="UTF-8"?>
<svg xmlns="http://www.w3.org/2000/svg" xmlns:xlink="http://www.w3.org/1999/xlink" width="234" height="142" viewBox="0 0 234 142">
<rect x="-23.4" y="-14.2" width="280.8" height="170.4" fill="rgb(100%, 100%, 100%)" fill-opacity="1"/>
<path fill-rule="nonzero" fill="rgb(0%, 0%, 0%)" fill-opacity="1" d="M 19.367188 125.066406 C 18.941406 125.816406 18.4375 126.378906 17.855469 126.753906 C 17.273438 127.136719 16.675781 127.324219 16.0625 127.320312 C 15.496094 127.324219 14.949219 127.160156 14.417969 126.832031 C 13.886719 126.507812 13.464844 126.03125 13.15625 125.402344 C 12.839844 124.777344 12.683594 124.121094 12.6875 123.425781 C 12.683594 122.425781 12.992188 121.511719 13.617188 120.6875 C 14.234375 119.867188 15.066406 119.457031 16.113281 119.453125 C 16.851562 119.457031 17.53125 119.6875 18.144531 120.144531 C 18.753906 120.609375 19.226562 121.277344 19.570312 122.15625 C 20.003906 123.28125 20.222656 124.589844 20.226562 126.082031 C 20.222656 127.242188 20.039062 128.207031 19.667969 128.972656 C 19.417969 129.496094 19.054688 130 18.578125 130.488281 C 18.097656 130.976562 17.558594 131.375 16.960938 131.679688 C 16.140625 132.089844 15.289062 132.292969 14.40625 132.292969 C 13.816406 132.292969 13.335938 132.183594 12.96875 131.960938 C 12.796875 131.859375 12.710938 131.730469 12.714844 131.570312 C 12.710938 131.464844 12.75 131.371094 12.832031 131.292969 C 12.90625 131.21875 13.003906 131.179688 13.117188 131.179688 C 13.195312 131.179688 13.308594 131.21875 13.457031 131.289062 C 13.707031 131.414062 14 131.472656 14.335938 131.472656 C 15.71875 131.472656 16.910156 130.976562 17.910156 129.976562 C 18.90625 128.980469 19.402344 127.726562 19.40625 126.21875 C 19.402344 125.949219 19.390625 125.566406 19.367188 125.066406 Z M 19.210938 123.699219 C 18.863281 122.382812 18.433594 121.484375 17.921875 121 C 17.410156 120.523438 16.8125 120.28125 16.132812 120.28125 C 15.433594 120.28125 14.820312 120.574219 14.296875 121.160156 C 13.765625 121.746094 13.503906 122.5 13.507812 123.414062 C 13.503906 124.3125 13.765625 125.050781 14.296875 125.628906 C 14.820312 126.214844 15.417969 126.503906 16.085938 126.5 C 16.464844 126.503906 16.84375 126.398438 17.21875 126.1875 C 17.59375 125.980469 17.945312 125.667969 18.28125 125.25 C 18.492188 124.972656 18.804688 124.457031 19.210938 123.699219 Z M 10 115.351562 "/>
<path fill-rule="nonzero" fill="rgb(0%, 0%, 0%)" fill-opacity="1" d="M 34 10 L 36 10 L 36 122 L 34 122 Z M 34 10 "/>
<path fill-rule="nonzero" fill="rgb(0%, 0%, 0%)" fill-opacity="1" d="M 38 10 L 40 10 L 40 122 L 38 122 Z M 38 10 "/>
<path fill-rule="nonzero" fill="rgb(0%, 0%, 0%)" fill-opacity="1" d="M 42 10 L 44 10 L 44 110 L 42 110 Z M 42 10 "/>
<path fill-rule="nonzero" fill="rgb(0%, 0%, 0%)" fill-opacity="1" d="M 44 10 L 46 10 L 46 110 L 44 110 Z M 44 10 "/>
<path fill-rule="nonzero" fill="rgb(0%, 0%, 0%)" fill-opacity="1" d="M 48 10 L 50 10 L 50 110 L 48 110 Z M 48 10 "/>
<path fill-rule="nonzero" fill="rgb(0%, 0%, 0%)" fill-opacity="1" d="M 50 10 L 52 10 L 52 110 L 50 110 Z M 50 10 "/>
<path fill-rule="nonzero" fill="rgb(0%, 0%, 0%)" fill-opacity="1" d="M 52 10 L 54 10 L 54 110 L 52 110 Z M 52 10 "/>
<path fill-rule="nonzero" fill="rgb(0%, 0%, 0%)" fill-opacity="1" d="M 58 10 L 60 10 L 60 110 L 58 110 Z M 58 10 "/>
<path fill-rule="nonzero" fill="rgb(0%, 0%, 0%)" fill-opacity="1" d="M 66 10 L 68 10 L 68 110 L 66 110 Z M 66 10 "/>
<path fill-rule="nonzero" fill="rgb(0%, 0%, 0%)" fill-opacity="1" d="M 76 10 L 78 10 L 78 110 L 76 110 Z M 76 10 "/>
<path fill-rule="nonzero" fill="rgb(0%, 0%, 0%)" fill-opacity="1" d="M 80 10 L 82 10 L 82 110 L 80 110 Z M 80 10 "/>
<path fill-rule="nonzero" fill="rgb(0%, 0%, 0%)" fill-opacity="1" d="M 84 10 L 86 10 L 86 110 L 84 110 Z M 84 10 "/>
<path fill-rule="nonzero" fill="rgb(0%, 0%, 0%)" fill-opacity="1" d="M 86 10 L 88 10 L 88 110 L 86 110 Z M 86 10 "/>
<path fill-rule="nonzero" fill="rgb(0%, 0%, 0%)" fill-opacity="1" d="M 94 10 L 96 10 L 96 110 L 94 110 Z M 94 10 "/>
<path fill-rule="nonzero" fill="rgb(0%, 0%, 0%)" fill-opacity="1" d="M 100 10 L 102 10 L 102 110 L 100 110 Z M 100 10 "/>
<path fill-rule="nonzero" fill="rgb(0%, 0%, 0%)" fill-opacity="1" d="M 102 10 L 104 10 L 104 110 L 102 110 Z M 102 10 "/>
<path fill-rule="nonzero" fill="rgb(0%, 0%, 0%)" fill-opacity="1" d="M 104 10 L 106 10 L 106 110 L 104 110 Z M 104 10 "/>
<path fill-rule="nonzero" fill="rgb(0%, 0%, 0%)" fill-opacity="1" d="M 108 10 L 110 10 L 110 110 L 108 110 Z M 108 10 "/>
<path fill-rule="nonzero" fill="rgb(0%, 0%, 0%)" fill-opacity="1" d="M 112 10 L 114 10 L 114 110 L 112 110 Z M 112 10 "/>
<path fill-rule="nonzero" fill="rgb(0%, 0%, 0%)" fill-opacity="1" d="M 114 10 L 116 10 L 116 110 L 114 110 Z M 114 10 "/>
<path fill-rule="nonzero" fill="rgb(0%, 0%, 0%)" fill-opacity="1" d="M 116 10 L 118 10 L 118 110 L 116 110 Z M 116 10 "/>
<path fill-rule="nonzero" fill="rgb(0%, 0%, 0%)" fill-opacity="1" d="M 118 10 L 120 10 L 120 110 L 118 110 Z M 118 10 "/>
<path fill-rule="nonzero" fill="rgb(0%, 0%, 0%)" fill-opacity="1" d="M 122 10 L 124 10 L 124 110 L 122 110 Z M 122 10 "/>
<path fill-rule="nonzero" fill="rgb(0%, 0%, 0%)" fill-opacity="1" d="M 53.6875 125.640625 C 54.367188 125.976562 54.882812 126.414062 55.234375 126.957031 C 55.582031 127.503906 55.753906 128.089844 55.757812 128.710938 C 55.753906 129.683594 55.390625 130.523438 54.664062 131.230469 C 53.933594 131.941406 53.046875 132.292969 52.007812 132.292969 C 50.960938 132.292969 50.078125 131.941406 49.351562 131.230469 C 48.621094 130.523438 48.253906 129.683594 48.257812 128.710938 C 48.253906 128.09375 48.429688 127.511719 48.777344 126.964844 C 49.125 126.425781 49.644531 125.984375 50.335938 125.640625 C 49.734375 125.300781 49.296875 124.941406 49.027344 124.570312 C 48.648438 124.042969 48.460938 123.460938 48.460938 122.820312 C 48.460938 121.925781 48.804688 121.140625 49.5 120.464844 C 50.1875 119.792969 51.023438 119.457031 52.007812 119.453125 C 52.984375 119.457031 53.820312 119.792969 54.515625 120.464844 C 55.203125 121.140625 55.550781 121.925781 55.550781 122.820312 C 55.550781 123.460938 55.359375 124.039062 54.984375 124.558594 C 54.714844 124.9375 54.285156 125.300781 53.6875 125.640625 Z M 54.710938 122.851562 C 54.707031 122.152344 54.445312 121.546875 53.925781 121.039062 C 53.398438 120.535156 52.753906 120.28125 51.996094 120.28125 C 51.238281 120.28125 50.597656 120.535156 50.074219 121.042969 C 49.546875 121.550781 49.285156 122.152344 49.289062 122.839844 C 49.285156 123.480469 49.546875 124.039062 50.066406 124.515625 C 50.582031 125 51.222656 125.238281 51.996094 125.234375 C 52.765625 125.238281 53.414062 125 53.933594 124.515625 C 54.449219 124.039062 54.707031 123.484375 54.710938 122.851562 Z M 54.9375 128.726562 C 54.933594 128.007812 54.65625 127.378906 54.097656 126.84375 C 53.535156 126.3125 52.835938 126.046875 52.007812 126.042969 C 51.171875 126.046875 50.476562 126.3125 49.917969 126.84375 C 49.355469 127.378906 49.074219 128.003906 49.078125 128.71875 C 49.074219 129.460938 49.355469 130.105469 49.921875 130.652344 C 50.480469 131.199219 51.175781 131.472656 52.007812 131.472656 C 52.828125 131.472656 53.523438 131.199219 54.089844 130.652344 C 54.652344 130.105469 54.933594 129.464844 54.9375 128.726562 Z M 66.757812 120.945312 L 66.757812 120.574219 L 60.882812 120.574219 L 60.882812 121.296875 C 60.882812 121.496094 60.84375 121.636719 60.769531 121.71875 C 60.691406 121.804688 60.589844 121.847656 60.46875 121.84375 C 60.351562 121.847656 60.257812 121.804688 60.179688 121.71875 C 60.101562 121.636719 60.0625 121.496094 60.0625 121.296875 L 60.0625 119.742188 L 67.589844 119.742188 L 67.589844 121.054688 L 64.289062 131.601562 C 64.234375 131.769531 64.171875 131.882812 64.101562 131.9375 C 64.027344 131.992188 63.949219 132.015625 63.859375 132.019531 C 63.742188 132.015625 63.644531 131.980469 63.566406 131.902344 C 63.488281 131.828125 63.449219 131.738281 63.449219 131.628906 C 63.449219 131.566406 63.46875 131.472656 63.507812 131.355469 Z M 73.558594 126.8125 C 74.0625 126.070312 74.585938 125.515625 75.125 125.15625 C 75.664062 124.796875 76.261719 124.617188 76.917969 124.617188 C 77.789062 124.617188 78.5625 124.980469 79.242188 125.707031 C 79.917969 126.433594 80.257812 127.332031 80.257812 128.398438 C 80.257812 129.375 79.945312 130.269531 79.328125 131.078125 C 78.707031 131.890625 77.855469 132.292969 76.769531 132.292969 C 76.058594 132.292969 75.398438 132.078125 74.785156 131.640625 C 74.167969 131.207031 73.683594 130.535156 73.332031 129.625 C 72.894531 128.503906 72.675781 127.257812 72.679688 125.886719 C 72.675781 124.863281 72.878906 123.90625 73.292969 123.015625 C 73.601562 122.335938 74.019531 121.734375 74.542969 121.214844 C 75.0625 120.699219 75.667969 120.277344 76.363281 119.945312 C 77.054688 119.621094 77.808594 119.457031 78.617188 119.453125 C 79.164062 119.457031 79.617188 119.566406 79.984375 119.78125 C 80.136719 119.882812 80.214844 120.011719 80.21875 120.171875 C 80.214844 120.292969 80.179688 120.390625 80.109375 120.464844 C 80.035156 120.539062 79.945312 120.574219 79.839844 120.574219 C 79.75 120.574219 79.648438 120.542969 79.535156 120.476562 C 79.265625 120.347656 78.933594 120.28125 78.539062 120.28125 C 77.269531 120.28125 76.113281 120.828125 75.066406 121.917969 C 74.019531 123.011719 73.496094 124.308594 73.5 125.808594 C 73.496094 126.027344 73.515625 126.363281 73.558594 126.8125 Z M 73.746094 128.171875 C 73.988281 129.359375 74.375 130.203125 74.910156 130.710938 C 75.4375 131.21875 76.066406 131.472656 76.792969 131.472656 C 77.519531 131.472656 78.140625 131.191406 78.660156 130.621094 C 79.175781 130.054688 79.4375 129.3125 79.4375 128.398438 C 79.4375 127.546875 79.175781 126.839844 78.65625 126.277344 C 78.132812 125.71875 77.542969 125.4375 76.886719 125.4375 C 76.253906 125.4375 75.644531 125.710938 75.0625 126.25 C 74.667969 126.609375 74.230469 127.25 73.746094 128.171875 Z M 85.75 120.574219 L 85.75 124.585938 C 86.226562 124.390625 86.6875 124.238281 87.132812 124.136719 C 87.574219 124.035156 87.996094 123.984375 88.394531 123.984375 C 89.421875 123.984375 90.28125 124.347656 90.976562 125.066406 C 91.667969 125.792969 92.015625 126.742188 92.015625 127.917969 C 92.015625 129.222656 91.625 130.277344 90.84375 131.082031 C 90.0625 131.890625 89.085938 132.292969 87.914062 132.292969 C 87.140625 132.292969 86.394531 132.121094 85.679688 131.773438 C 85.167969 131.535156 84.707031 131.234375 84.292969 130.875 C 84.042969 130.664062 83.917969 130.488281 83.921875 130.339844 C 83.917969 130.226562 83.957031 130.125 84.039062 130.042969 C 84.113281 129.964844 84.203125 129.925781 84.3125 129.921875 C 84.417969 129.925781 84.535156 129.984375 84.664062 130.09375 C 85.644531 131.015625 86.714844 131.472656 87.875 131.472656 C 88.828125 131.472656 89.621094 131.148438 90.25 130.492188 C 90.871094 129.839844 91.183594 128.96875 91.1875 127.878906 C 91.183594 126.957031 90.914062 126.210938 90.375 125.648438 C 89.835938 125.085938 89.148438 124.804688 88.316406 124.804688 C 87.460938 124.804688 86.609375 125.03125 85.757812 125.476562 C 85.546875 125.585938 85.398438 125.636719 85.320312 125.632812 C 85.195312 125.636719 85.101562 125.597656 85.035156 125.515625 C 84.960938 125.441406 84.925781 125.332031 84.929688 125.183594 L 84.929688 119.742188 L 90.648438 119.742188 C 90.84375 119.742188 90.984375 119.78125 91.070312 119.859375 C 91.152344 119.9375 91.195312 120.039062 91.195312 120.164062 C 91.195312 120.28125 91.152344 120.378906 91.070312 120.457031 C 90.984375 120.535156 90.84375 120.574219 90.648438 120.574219 Z M 101.539062 128.570312 L 96.097656 128.570312 L 96.097656 127.625 L 100.65625 119.742188 L 102.367188 119.742188 L 102.367188 127.75 L 103.050781 127.75 C 103.246094 127.753906 103.390625 127.789062 103.480469 127.863281 C 103.5625 127.941406 103.605469 128.042969 103.609375 128.164062 C 103.605469 128.28125 103.5625 128.378906 103.480469 128.453125 C 103.390625 128.535156 103.246094 128.574219 103.050781 128.570312 L 102.367188 128.570312 L 102.367188 131.179688 L 103.050781 131.179688 C 103.246094 131.179688 103.390625 131.21875 103.480469 131.292969 C 103.5625 131.371094 103.605469 131.46875 103.609375 131.589844 C 103.605469 131.707031 103.5625 131.804688 103.480469 131.882812 C 103.390625 131.960938 103.246094 132 103.050781 132 L 100.003906 132 C 99.800781 132 99.660156 131.960938 99.574219 131.882812 C 99.488281 131.804688 99.445312 131.707031 99.445312 131.589844 C 99.445312 131.46875 99.488281 131.371094 99.574219 131.292969 C 99.660156 131.21875 99.800781 131.179688 100.003906 131.179688 L 101.539062 131.179688 Z M 101.539062 127.75 L 101.539062 120.574219 L 101.109375 120.574219 L 96.957031 127.75 Z M 113.695312 125.328125 C 114.449219 125.667969 115.023438 126.132812 115.421875 126.722656 C 115.816406 127.3125 116.015625 127.925781 116.015625 128.5625 C 116.015625 129.550781 115.617188 130.417969 114.820312 131.167969 C 114.023438 131.917969 113.023438 132.292969 111.828125 132.292969 C 111.121094 132.292969 110.394531 132.144531 109.640625 131.84375 C 108.882812 131.546875 108.355469 131.242188 108.058594 130.925781 C 107.960938 130.824219 107.910156 130.710938 107.914062 130.59375 C 107.910156 130.492188 107.949219 130.402344 108.023438 130.320312 C 108.097656 130.246094 108.1875 130.207031 108.292969 130.203125 C 108.394531 130.207031 108.511719 130.257812 108.644531 130.351562 C 109.652344 131.101562 110.71875 131.472656 111.847656 131.472656 C 112.796875 131.472656 113.59375 131.175781 114.234375 130.582031 C 114.875 129.988281 115.195312 129.328125 115.195312 128.59375 C 115.195312 128.109375 115.035156 127.628906 114.722656 127.15625 C 114.402344 126.691406 113.949219 126.320312 113.359375 126.046875 C 112.765625 125.777344 112.167969 125.644531 111.5625 125.640625 C 111.367188 125.644531 111.226562 125.605469 111.144531 125.53125 C 111.054688 125.457031 111.011719 125.359375 111.015625 125.234375 C 111.011719 125.117188 111.050781 125.019531 111.136719 124.9375 C 111.214844 124.863281 111.339844 124.824219 111.507812 124.820312 L 112.210938 124.832031 C 112.941406 124.835938 113.546875 124.609375 114.03125 124.160156 C 114.507812 123.710938 114.75 123.191406 114.75 122.59375 C 114.75 121.988281 114.496094 121.449219 113.996094 120.976562 C 113.488281 120.511719 112.835938 120.277344 112.03125 120.273438 C 111.464844 120.277344 110.941406 120.375 110.46875 120.566406 C 109.992188 120.765625 109.613281 121.03125 109.328125 121.367188 C 109.222656 121.5 109.144531 121.578125 109.089844 121.605469 C 109.035156 121.636719 108.96875 121.652344 108.898438 121.648438 C 108.785156 121.652344 108.691406 121.613281 108.617188 121.535156 C 108.535156 121.460938 108.496094 121.371094 108.5 121.265625 C 108.496094 121.007812 108.78125 120.679688 109.347656 120.28125 C 110.136719 119.730469 111.03125 119.457031 112.03125 119.453125 C 113.066406 119.457031 113.914062 119.765625 114.582031 120.386719 C 115.242188 121.007812 115.574219 121.75 115.578125 122.605469 C 115.574219 123.15625 115.414062 123.671875 115.097656 124.160156 C 114.777344 124.648438 114.3125 125.039062 113.695312 125.328125 Z M 46 115.351562 "/>
<path fill-rule="nonzero" fill="rgb(0%, 0%, 0%)" fill-opacity="1" d="M 126 10 L 128 10 L 128 122 L 126 122 Z M 126 10 "/>
<path fill-rule="nonzero" fill="rgb(0%, 0%, 0%)" fill-opacity="1" d="M 130 10 L 132 10 L 132 122 L 130 122 Z M 130 10 "/>
<path fill-rule="nonzero" fill="rgb(0%, 0%, 0%)" fill-opacity="1" d="M 134 10 L 136 10 L 136 110 L 134 110 Z M 134 10 "/>
<path fill-rule="nonzero" fill="rgb(0%, 0%, 0%)" fill-opacity="1" d="M 136 10 L 138 10 L 138 110 L 136 110 Z M 136 10 "/>
<path fill-rule="nonzero" fill="rgb(0%, 0%, 0%)" fill-opacity="1" d="M 140 10 L 142 10 L 142 110 L 140 110 Z M 140 10 "/>
<path fill-rule="nonzero" fill="rgb(0%, 0%, 0%)" fill-opacity="1" d="M 142 10 L 144 10 L 144 110 L 142 110 Z M 142 10 "/>
<path fill-rule="nonzero" fill="rgb(0%, 0%, 0%)" fill-opacity="1" d="M 148 10 L 150 10 L 150 110 L 148 110 Z M 148 10 "/>
<path fill-rule="nonzero" fill="rgb(0%, 0%, 0%)" fill-opacity="1" d="M 150 10 L 152 10 L 152 110 L 150 110 Z M 150 10 "/>
<path fill-rule="nonzero" fill="rgb(0%, 0%, 0%)" fill-opacity="1" d="M 156 10 L 158 10 L 158 110 L 156 110 Z M 156 10 "/>
<path fill-rule="nonzero" fill="rgb(0%, 0%, 0%)" fill-opacity="1" d="M 158 10 L 160 10 L 160 110 L 158 110 Z M 158 10 "/>
<path fill-rule="nonzero" fill="rgb(0%, 0%, 0%)" fill-opacity="1" d="M 162 10 L 164 10 L 164 110 L 162 110 Z M 162 10 "/>
<path fill-rule="nonzero" fill="rgb(0%, 0%, 0%)" fill-opacity="1" d="M 164 10 L 166 10 L 166 110 L 164 110 Z M 164 10 "/>
<path fill-rule="nonzero" fill="rgb(0%, 0%, 0%)" fill-opacity="1" d="M 166 10 L 168 10 L 168 110 L 166 110 Z M 166 10 "/>
<path fill-rule="nonzero" fill="rgb(0%, 0%, 0%)" fill-opacity="1" d="M 172 10 L 174 10 L 174 110 L 172 110 Z M 172 10 "/>
<path fill-rule="nonzero" fill="rgb(0%, 0%, 0%)" fill-opacity="1" d="M 176 10 L 178 10 L 178 110 L 176 110 Z M 176 10 "/>
<path fill-rule="nonzero" fill="rgb(0%, 0%, 0%)" fill-opacity="1" d="M 178 10 L 180 10 L 180 110 L 178 110 Z M 178 10 "/>
<path fill-rule="nonzero" fill="rgb(0%, 0%, 0%)" fill-opacity="1" d="M 180 10 L 182 10 L 182 110 L 180 110 Z M 180 10 "/>
<path fill-rule="nonzero" fill="rgb(0%, 0%, 0%)" fill-opacity="1" d="M 184 10 L 186 10 L 186 110 L 184 110 Z M 184 10 "/>
<path fill-rule="nonzero" fill="rgb(0%, 0%, 0%)" fill-opacity="1" d="M 190 10 L 192 10 L 192 110 L 190 110 Z M 190 10 "/>
<path fill-rule="nonzero" fill="rgb(0%, 0%, 0%)" fill-opacity="1" d="M 196 10 L 198 10 L 198 110 L 196 110 Z M 196 10 "/>
<path fill-rule="nonzero" fill="rgb(0%, 0%, 0%)" fill-opacity="1" d="M 204 10 L 206 10 L 206 110 L 204 110 Z M 204 10 "/>
<path fill-rule="nonzero" fill="rgb(0%, 0%, 0%)" fill-opacity="1" d="M 206 10 L 208 10 L 208 110 L 206 110 Z M 206 10 "/>
<path fill-rule="nonzero" fill="rgb(0%, 0%, 0%)" fill-opacity="1" d="M 210 10 L 212 10 L 212 110 L 210 110 Z M 210 10 "/>
<path fill-rule="nonzero" fill="rgb(0%, 0%, 0%)" fill-opacity="1" d="M 212 10 L 214 10 L 214 110 L 212 110 Z M 212 10 "/>
<path fill-rule="nonzero" fill="rgb(0%, 0%, 0%)" fill-opacity="1" d="M 142.46875 131.179688 L 148.769531 131.179688 L 148.769531 130.859375 C 148.765625 130.664062 148.804688 130.523438 148.886719 130.4375 C 148.960938 130.355469 149.0625 130.3125 149.1875 130.3125 C 149.304688 130.3125 149.402344 130.355469 149.484375 130.4375 C 149.558594 130.523438 149.597656 130.664062 149.601562 130.859375 L 149.601562 132 L 141.671875 132 L 141.671875 130.789062 C 143.335938 129.292969 144.957031 127.769531 146.53125 126.21875 C 147.265625 125.496094 147.769531 124.964844 148.046875 124.625 C 148.316406 124.289062 148.503906 123.992188 148.605469 123.734375 C 148.703125 123.480469 148.753906 123.222656 148.757812 122.957031 C 148.753906 122.257812 148.472656 121.636719 147.910156 121.09375 C 147.34375 120.554688 146.660156 120.28125 145.859375 120.28125 C 145.140625 120.28125 144.503906 120.488281 143.953125 120.898438 C 143.398438 121.308594 143.042969 121.816406 142.882812 122.421875 C 142.839844 122.582031 142.789062 122.683594 142.734375 122.722656 C 142.652344 122.792969 142.5625 122.824219 142.460938 122.820312 C 142.351562 122.824219 142.257812 122.785156 142.183594 122.707031 C 142.105469 122.632812 142.066406 122.542969 142.070312 122.4375 C 142.066406 122.125 142.238281 121.703125 142.582031 121.167969 C 142.921875 120.636719 143.394531 120.21875 143.996094 119.910156 C 144.597656 119.609375 145.214844 119.457031 145.851562 119.453125 C 146.871094 119.457031 147.75 119.808594 148.484375 120.515625 C 149.21875 121.226562 149.585938 122.03125 149.589844 122.929688 C 149.585938 123.304688 149.523438 123.652344 149.402344 123.96875 C 149.277344 124.285156 149.066406 124.628906 148.773438 125.003906 C 148.472656 125.378906 147.941406 125.945312 147.179688 126.695312 C 145.25 128.601562 143.679688 130.074219 142.46875 131.121094 Z M 158.40625 119.578125 L 158.40625 131.179688 L 161.21875 131.179688 C 161.410156 131.179688 161.550781 131.21875 161.636719 131.292969 C 161.71875 131.371094 161.761719 131.46875 161.765625 131.589844 C 161.761719 131.707031 161.71875 131.804688 161.636719 131.882812 C 161.550781 131.960938 161.410156 132 161.21875 132 L 154.773438 132 C 154.574219 132 154.433594 131.960938 154.351562 131.882812 C 154.265625 131.804688 154.226562 131.707031 154.226562 131.589844 C 154.226562 131.46875 154.265625 131.371094 154.351562 131.292969 C 154.433594 131.21875 154.574219 131.179688 154.773438 131.179688 L 157.585938 131.179688 L 157.585938 120.710938 L 154.910156 121.550781 C 154.777344 121.59375 154.683594 121.613281 154.625 121.609375 C 154.527344 121.613281 154.4375 121.570312 154.355469 121.488281 C 154.273438 121.410156 154.230469 121.316406 154.234375 121.199219 C 154.230469 121.105469 154.265625 121.011719 154.335938 120.925781 C 154.386719 120.875 154.492188 120.820312 154.65625 120.757812 Z M 173.769531 124.859375 L 173.769531 126.890625 C 173.765625 128.65625 173.347656 130.054688 172.511719 131.082031 C 171.851562 131.890625 171.019531 132.292969 170.019531 132.292969 C 169.535156 132.292969 169.082031 132.195312 168.65625 132.003906 C 168.230469 131.8125 167.867188 131.546875 167.566406 131.199219 C 167.378906 130.984375 167.171875 130.640625 166.949219 130.164062 C 166.722656 129.695312 166.5625 129.257812 166.464844 128.855469 C 166.3125 128.296875 166.234375 127.640625 166.238281 126.890625 L 166.238281 124.859375 C 166.234375 123.089844 166.65625 121.691406 167.5 120.664062 C 168.15625 119.859375 168.984375 119.457031 169.988281 119.453125 C 170.472656 119.457031 170.929688 119.550781 171.355469 119.742188 C 171.777344 119.933594 172.140625 120.203125 172.441406 120.546875 C 172.636719 120.769531 172.84375 121.117188 173.066406 121.589844 C 173.285156 122.070312 173.449219 122.503906 173.554688 122.890625 C 173.695312 123.449219 173.765625 124.105469 173.769531 124.859375 Z M 172.949219 124.96875 C 172.945312 124.195312 172.835938 123.476562 172.621094 122.804688 C 172.398438 122.140625 172.152344 121.609375 171.886719 121.210938 C 171.71875 120.984375 171.507812 120.789062 171.25 120.625 C 170.875 120.398438 170.457031 120.28125 170 120.28125 C 169.078125 120.28125 168.359375 120.75 167.839844 121.6875 C 167.316406 122.625 167.054688 123.71875 167.058594 124.96875 L 167.058594 126.773438 C 167.054688 127.550781 167.164062 128.277344 167.386719 128.945312 C 167.601562 129.617188 167.851562 130.148438 168.136719 130.546875 C 168.289062 130.765625 168.5 130.957031 168.761719 131.121094 C 169.128906 131.355469 169.546875 131.472656 170.019531 131.472656 C 170.929688 131.472656 171.644531 131.003906 172.167969 130.0625 C 172.683594 129.121094 172.945312 128.023438 172.949219 126.773438 Z M 185.375 125.066406 C 184.949219 125.816406 184.445312 126.378906 183.863281 126.753906 C 183.28125 127.136719 182.683594 127.324219 182.070312 127.320312 C 181.503906 127.324219 180.957031 127.160156 180.425781 126.832031 C 179.894531 126.507812 179.472656 126.03125 179.164062 125.402344 C 178.847656 124.777344 178.691406 124.121094 178.695312 123.425781 C 178.691406 122.425781 179 121.511719 179.625 120.6875 C 180.242188 119.867188 181.074219 119.457031 182.121094 119.453125 C 182.859375 119.457031 183.539062 119.6875 184.152344 120.144531 C 184.761719 120.609375 185.234375 121.277344 185.578125 122.15625 C 186.011719 123.28125 186.230469 124.589844 186.234375 126.082031 C 186.230469 127.242188 186.046875 128.207031 185.675781 128.972656 C 185.425781 129.496094 185.0625 130 184.585938 130.488281 C 184.105469 130.976562 183.566406 131.375 182.96875 131.679688 C 182.148438 132.089844 181.296875 132.292969 180.414062 132.292969 C 179.824219 132.292969 179.34375 132.183594 178.976562 131.960938 C 178.804688 131.859375 178.71875 131.730469 178.722656 131.570312 C 178.71875 131.464844 178.757812 131.371094 178.839844 131.292969 C 178.914062 131.21875 179.011719 131.179688 179.125 131.179688 C 179.203125 131.179688 179.316406 131.21875 179.464844 131.289062 C 179.714844 131.414062 180.007812 131.472656 180.34375 131.472656 C 181.726562 131.472656 182.917969 130.976562 183.917969 129.976562 C 184.914062 128.980469 185.410156 127.726562 185.414062 126.21875 C 185.410156 125.949219 185.398438 125.566406 185.375 125.066406 Z M 185.21875 123.699219 C 184.871094 122.382812 184.441406 121.484375 183.929688 121 C 183.417969 120.523438 182.820312 120.28125 182.140625 120.28125 C 181.441406 120.28125 180.828125 120.574219 180.304688 121.160156 C 179.773438 121.746094 179.511719 122.5 179.515625 123.414062 C 179.511719 124.3125 179.773438 125.050781 180.304688 125.628906 C 180.828125 126.214844 181.425781 126.503906 182.09375 126.5 C 182.472656 126.503906 182.851562 126.398438 183.226562 126.1875 C 183.601562 125.980469 183.953125 125.667969 184.289062 125.25 C 184.5 124.972656 184.8125 124.457031 185.21875 123.699219 Z M 195.695312 125.640625 C 196.375 125.976562 196.890625 126.414062 197.242188 126.957031 C 197.589844 127.503906 197.761719 128.089844 197.765625 128.710938 C 197.761719 129.683594 197.398438 130.523438 196.671875 131.230469 C 195.941406 131.941406 195.054688 132.292969 194.015625 132.292969 C 192.96875 132.292969 192.085938 131.941406 191.359375 131.230469 C 190.628906 130.523438 190.261719 129.683594 190.265625 128.710938 C 190.261719 128.09375 190.4375 127.511719 190.785156 126.964844 C 191.132812 126.425781 191.652344 125.984375 192.34375 125.640625 C 191.742188 125.300781 191.304688 124.941406 191.035156 124.570312 C 190.65625 124.042969 190.46875 123.460938 190.46875 122.820312 C 190.46875 121.925781 190.8125 121.140625 191.507812 120.464844 C 192.195312 119.792969 193.03125 119.457031 194.015625 119.453125 C 194.992188 119.457031 195.828125 119.792969 196.523438 120.464844 C 197.210938 121.140625 197.558594 121.925781 197.558594 122.820312 C 197.558594 123.460938 197.367188 124.039062 196.992188 124.558594 C 196.722656 124.9375 196.292969 125.300781 195.695312 125.640625 Z M 196.71875 122.851562 C 196.714844 122.152344 196.453125 121.546875 195.933594 121.039062 C 195.40625 120.535156 194.761719 120.28125 194.003906 120.28125 C 193.246094 120.28125 192.605469 120.535156 192.082031 121.042969 C 191.554688 121.550781 191.292969 122.152344 191.296875 122.839844 C 191.292969 123.480469 191.554688 124.039062 192.074219 124.515625 C 192.589844 125 193.230469 125.238281 194.003906 125.234375 C 194.773438 125.238281 195.421875 125 195.941406 124.515625 C 196.457031 124.039062 196.714844 123.484375 196.71875 122.851562 Z M 196.945312 128.726562 C 196.941406 128.007812 196.664062 127.378906 196.105469 126.84375 C 195.542969 126.3125 194.84375 126.046875 194.015625 126.042969 C 193.179688 126.046875 192.484375 126.3125 191.925781 126.84375 C 191.363281 127.378906 191.082031 128.003906 191.085938 128.71875 C 191.082031 129.460938 191.363281 130.105469 191.929688 130.652344 C 192.488281 131.199219 193.183594 131.472656 194.015625 131.472656 C 194.835938 131.472656 195.53125 131.199219 196.097656 130.652344 C 196.660156 130.105469 196.941406 129.464844 196.945312 128.726562 Z M 202.476562 131.179688 L 208.777344 131.179688 L 208.777344 130.859375 C 208.773438 130.664062 208.8125 130.523438 208.894531 130.4375 C 208.96875 130.355469 209.070312 130.3125 209.195312 130.3125 C 209.3125 130.3125 209.410156 130.355469 209.492188 130.4375 C 209.566406 130.523438 209.605469 130.664062 209.609375 130.859375 L 209.609375 132 L 201.679688 132 L 201.679688 130.789062 C 203.34375 129.292969 204.964844 127.769531 206.539062 126.21875 C 207.273438 125.496094 207.777344 124.964844 208.054688 124.625 C 208.324219 124.289062 208.511719 123.992188 208.613281 123.734375 C 208.710938 123.480469 208.761719 123.222656 208.765625 122.957031 C 208.761719 122.257812 208.480469 121.636719 207.917969 121.09375 C 207.351562 120.554688 206.667969 120.28125 205.867188 120.28125 C 205.148438 120.28125 204.511719 120.488281 203.960938 120.898438 C 203.40625 121.308594 203.050781 121.816406 202.890625 122.421875 C 202.847656 122.582031 202.796875 122.683594 202.742188 122.722656 C 202.660156 122.792969 202.570312 122.824219 202.46875 122.820312 C 202.359375 122.824219 202.265625 122.785156 202.191406 122.707031 C 202.113281 122.632812 202.074219 122.542969 202.078125 122.4375 C 202.074219 122.125 202.246094 121.703125 202.589844 121.167969 C 202.929688 120.636719 203.402344 120.21875 204.003906 119.910156 C 204.605469 119.609375 205.222656 119.457031 205.859375 119.453125 C 206.878906 119.457031 207.757812 119.808594 208.492188 120.515625 C 209.226562 121.226562 209.59375 122.03125 209.597656 122.929688 C 209.59375 123.304688 209.53125 123.652344 209.410156 123.96875 C 209.285156 124.285156 209.074219 124.628906 208.78125 125.003906 C 208.480469 125.378906 207.949219 125.945312 207.1875 126.695312 C 205.257812 128.601562 203.6875 130.074219 202.476562 131.121094 Z M 140 115.351562 "/>
<path fill-rule="nonzero" fill="rgb(0%, 0%, 0%)" fill-opacity="1" d="M 218 10 L 220 10 L 220 122 L 218 122 Z M 218 10 "/>
<path fill-rule="nonzero" fill="rgb(0%, 0%, 0%)" fill-opacity="1" d="M 222 10 L 224 10 L 224 122 L 222 122 Z M 222 10 "/>
</svg>
